<mxfile host="Electron" agent="Mozilla/5.0 (Windows NT 10.0; Win64; x64) AppleWebKit/537.36 (KHTML, like Gecko) draw.io/25.0.2 Chrome/128.0.6613.186 Electron/32.2.5 Safari/537.36" version="25.0.2">
  <diagram name="Seite-1" id="jk51XyNueaPlg8szj3Q_">
    <mxGraphModel dx="1430" dy="825" grid="1" gridSize="10" guides="1" tooltips="1" connect="1" arrows="1" fold="1" page="1" pageScale="1" pageWidth="827" pageHeight="1169" math="0" shadow="0">
      <root>
        <mxCell id="0" />
        <mxCell id="1" parent="0" />
        <mxCell id="iUI2MCQNHXwOpUdywdGW-1" value="" style="group;fillColor=#dae8fc;strokeColor=#6c8ebf;" vertex="1" connectable="0" parent="1">
          <mxGeometry x="480" y="440" width="160" height="36" as="geometry" />
        </mxCell>
        <mxCell id="iUI2MCQNHXwOpUdywdGW-2" value="" style="rounded=1;whiteSpace=wrap;html=1;strokeWidth=4;fillColor=#dae8fc;strokeColor=#6c8ebf;" vertex="1" parent="iUI2MCQNHXwOpUdywdGW-1">
          <mxGeometry width="160" height="36" as="geometry" />
        </mxCell>
        <mxCell id="iUI2MCQNHXwOpUdywdGW-3" value="" style="ellipse;whiteSpace=wrap;html=1;aspect=fixed;strokeWidth=3;fillColor=#dae8fc;strokeColor=#6c8ebf;" vertex="1" parent="iUI2MCQNHXwOpUdywdGW-1">
          <mxGeometry x="20" y="12" width="12" height="12" as="geometry" />
        </mxCell>
        <mxCell id="iUI2MCQNHXwOpUdywdGW-4" value="" style="rounded=1;whiteSpace=wrap;html=1;strokeWidth=3;fillColor=#dae8fc;strokeColor=#6c8ebf;" vertex="1" parent="iUI2MCQNHXwOpUdywdGW-1">
          <mxGeometry x="54" y="6" width="28" height="10" as="geometry" />
        </mxCell>
        <mxCell id="iUI2MCQNHXwOpUdywdGW-5" value="" style="rounded=1;whiteSpace=wrap;html=1;strokeWidth=3;fillColor=#dae8fc;strokeColor=#6c8ebf;" vertex="1" parent="iUI2MCQNHXwOpUdywdGW-1">
          <mxGeometry x="88" y="6" width="28" height="10" as="geometry" />
        </mxCell>
        <mxCell id="iUI2MCQNHXwOpUdywdGW-6" value="" style="rounded=1;whiteSpace=wrap;html=1;strokeWidth=3;fillColor=#dae8fc;strokeColor=#6c8ebf;" vertex="1" parent="iUI2MCQNHXwOpUdywdGW-1">
          <mxGeometry x="122" y="6" width="28" height="10" as="geometry" />
        </mxCell>
        <mxCell id="iUI2MCQNHXwOpUdywdGW-7" value="" style="rounded=1;whiteSpace=wrap;html=1;strokeWidth=3;fillColor=#dae8fc;strokeColor=#6c8ebf;" vertex="1" parent="iUI2MCQNHXwOpUdywdGW-1">
          <mxGeometry x="54" y="20" width="28" height="10" as="geometry" />
        </mxCell>
        <mxCell id="iUI2MCQNHXwOpUdywdGW-8" value="" style="rounded=1;whiteSpace=wrap;html=1;strokeWidth=3;fillColor=#dae8fc;strokeColor=#6c8ebf;" vertex="1" parent="iUI2MCQNHXwOpUdywdGW-1">
          <mxGeometry x="88" y="20" width="28" height="10" as="geometry" />
        </mxCell>
        <mxCell id="iUI2MCQNHXwOpUdywdGW-9" value="" style="rounded=1;whiteSpace=wrap;html=1;strokeWidth=3;fillColor=#dae8fc;strokeColor=#6c8ebf;" vertex="1" parent="iUI2MCQNHXwOpUdywdGW-1">
          <mxGeometry x="122" y="20" width="28" height="10" as="geometry" />
        </mxCell>
        <mxCell id="iUI2MCQNHXwOpUdywdGW-10" value="" style="group;fillColor=#dae8fc;strokeColor=#6c8ebf;" vertex="1" connectable="0" parent="1">
          <mxGeometry x="210" y="340" width="160" height="36" as="geometry" />
        </mxCell>
        <mxCell id="iUI2MCQNHXwOpUdywdGW-11" value="" style="rounded=1;whiteSpace=wrap;html=1;strokeWidth=4;fillColor=#dae8fc;strokeColor=#6c8ebf;" vertex="1" parent="iUI2MCQNHXwOpUdywdGW-10">
          <mxGeometry width="160" height="36" as="geometry" />
        </mxCell>
        <mxCell id="iUI2MCQNHXwOpUdywdGW-12" value="" style="ellipse;whiteSpace=wrap;html=1;aspect=fixed;strokeWidth=3;fillColor=#dae8fc;strokeColor=#6c8ebf;" vertex="1" parent="iUI2MCQNHXwOpUdywdGW-10">
          <mxGeometry x="20" y="12" width="12" height="12" as="geometry" />
        </mxCell>
        <mxCell id="iUI2MCQNHXwOpUdywdGW-13" value="" style="rounded=1;whiteSpace=wrap;html=1;strokeWidth=3;fillColor=#dae8fc;strokeColor=#6c8ebf;" vertex="1" parent="iUI2MCQNHXwOpUdywdGW-10">
          <mxGeometry x="54" y="6" width="28" height="10" as="geometry" />
        </mxCell>
        <mxCell id="iUI2MCQNHXwOpUdywdGW-14" value="" style="rounded=1;whiteSpace=wrap;html=1;strokeWidth=3;fillColor=#dae8fc;strokeColor=#6c8ebf;" vertex="1" parent="iUI2MCQNHXwOpUdywdGW-10">
          <mxGeometry x="88" y="6" width="28" height="10" as="geometry" />
        </mxCell>
        <mxCell id="iUI2MCQNHXwOpUdywdGW-15" value="" style="rounded=1;whiteSpace=wrap;html=1;strokeWidth=3;fillColor=#dae8fc;strokeColor=#6c8ebf;" vertex="1" parent="iUI2MCQNHXwOpUdywdGW-10">
          <mxGeometry x="122" y="6" width="28" height="10" as="geometry" />
        </mxCell>
        <mxCell id="iUI2MCQNHXwOpUdywdGW-16" value="" style="rounded=1;whiteSpace=wrap;html=1;strokeWidth=3;fillColor=#dae8fc;strokeColor=#6c8ebf;" vertex="1" parent="iUI2MCQNHXwOpUdywdGW-10">
          <mxGeometry x="54" y="20" width="28" height="10" as="geometry" />
        </mxCell>
        <mxCell id="iUI2MCQNHXwOpUdywdGW-17" value="" style="rounded=1;whiteSpace=wrap;html=1;strokeWidth=3;fillColor=#dae8fc;strokeColor=#6c8ebf;" vertex="1" parent="iUI2MCQNHXwOpUdywdGW-10">
          <mxGeometry x="88" y="20" width="28" height="10" as="geometry" />
        </mxCell>
        <mxCell id="iUI2MCQNHXwOpUdywdGW-18" value="" style="rounded=1;whiteSpace=wrap;html=1;strokeWidth=3;fillColor=#dae8fc;strokeColor=#6c8ebf;" vertex="1" parent="iUI2MCQNHXwOpUdywdGW-10">
          <mxGeometry x="122" y="20" width="28" height="10" as="geometry" />
        </mxCell>
        <mxCell id="iUI2MCQNHXwOpUdywdGW-19" value="" style="group;fillColor=#dae8fc;strokeColor=#6c8ebf;" vertex="1" connectable="0" parent="1">
          <mxGeometry x="210" y="385" width="160" height="36" as="geometry" />
        </mxCell>
        <mxCell id="iUI2MCQNHXwOpUdywdGW-20" value="" style="rounded=1;whiteSpace=wrap;html=1;strokeWidth=4;fillColor=#dae8fc;strokeColor=#6c8ebf;" vertex="1" parent="iUI2MCQNHXwOpUdywdGW-19">
          <mxGeometry width="160" height="36" as="geometry" />
        </mxCell>
        <mxCell id="iUI2MCQNHXwOpUdywdGW-21" value="" style="ellipse;whiteSpace=wrap;html=1;aspect=fixed;strokeWidth=3;fillColor=#dae8fc;strokeColor=#6c8ebf;" vertex="1" parent="iUI2MCQNHXwOpUdywdGW-19">
          <mxGeometry x="20" y="12" width="12" height="12" as="geometry" />
        </mxCell>
        <mxCell id="iUI2MCQNHXwOpUdywdGW-22" value="" style="rounded=1;whiteSpace=wrap;html=1;strokeWidth=3;fillColor=#dae8fc;strokeColor=#6c8ebf;" vertex="1" parent="iUI2MCQNHXwOpUdywdGW-19">
          <mxGeometry x="54" y="6" width="28" height="10" as="geometry" />
        </mxCell>
        <mxCell id="iUI2MCQNHXwOpUdywdGW-23" value="" style="rounded=1;whiteSpace=wrap;html=1;strokeWidth=3;fillColor=#dae8fc;strokeColor=#6c8ebf;" vertex="1" parent="iUI2MCQNHXwOpUdywdGW-19">
          <mxGeometry x="88" y="6" width="28" height="10" as="geometry" />
        </mxCell>
        <mxCell id="iUI2MCQNHXwOpUdywdGW-24" value="" style="rounded=1;whiteSpace=wrap;html=1;strokeWidth=3;fillColor=#dae8fc;strokeColor=#6c8ebf;" vertex="1" parent="iUI2MCQNHXwOpUdywdGW-19">
          <mxGeometry x="122" y="6" width="28" height="10" as="geometry" />
        </mxCell>
        <mxCell id="iUI2MCQNHXwOpUdywdGW-25" value="" style="rounded=1;whiteSpace=wrap;html=1;strokeWidth=3;fillColor=#dae8fc;strokeColor=#6c8ebf;" vertex="1" parent="iUI2MCQNHXwOpUdywdGW-19">
          <mxGeometry x="54" y="20" width="28" height="10" as="geometry" />
        </mxCell>
        <mxCell id="iUI2MCQNHXwOpUdywdGW-26" value="" style="rounded=1;whiteSpace=wrap;html=1;strokeWidth=3;fillColor=#dae8fc;strokeColor=#6c8ebf;" vertex="1" parent="iUI2MCQNHXwOpUdywdGW-19">
          <mxGeometry x="88" y="20" width="28" height="10" as="geometry" />
        </mxCell>
        <mxCell id="iUI2MCQNHXwOpUdywdGW-27" value="" style="rounded=1;whiteSpace=wrap;html=1;strokeWidth=3;fillColor=#dae8fc;strokeColor=#6c8ebf;" vertex="1" parent="iUI2MCQNHXwOpUdywdGW-19">
          <mxGeometry x="122" y="20" width="28" height="10" as="geometry" />
        </mxCell>
        <mxCell id="iUI2MCQNHXwOpUdywdGW-28" value="" style="group;fillColor=#dae8fc;strokeColor=#6c8ebf;" vertex="1" connectable="0" parent="1">
          <mxGeometry x="210" y="430" width="160" height="36" as="geometry" />
        </mxCell>
        <mxCell id="iUI2MCQNHXwOpUdywdGW-29" value="" style="rounded=1;whiteSpace=wrap;html=1;strokeWidth=4;fillColor=#dae8fc;strokeColor=#6c8ebf;" vertex="1" parent="iUI2MCQNHXwOpUdywdGW-28">
          <mxGeometry width="160" height="36" as="geometry" />
        </mxCell>
        <mxCell id="iUI2MCQNHXwOpUdywdGW-30" value="" style="ellipse;whiteSpace=wrap;html=1;aspect=fixed;strokeWidth=3;fillColor=#dae8fc;strokeColor=#6c8ebf;" vertex="1" parent="iUI2MCQNHXwOpUdywdGW-28">
          <mxGeometry x="20" y="12" width="12" height="12" as="geometry" />
        </mxCell>
        <mxCell id="iUI2MCQNHXwOpUdywdGW-31" value="" style="rounded=1;whiteSpace=wrap;html=1;strokeWidth=3;fillColor=#dae8fc;strokeColor=#6c8ebf;" vertex="1" parent="iUI2MCQNHXwOpUdywdGW-28">
          <mxGeometry x="54" y="6" width="28" height="10" as="geometry" />
        </mxCell>
        <mxCell id="iUI2MCQNHXwOpUdywdGW-32" value="" style="rounded=1;whiteSpace=wrap;html=1;strokeWidth=3;fillColor=#dae8fc;strokeColor=#6c8ebf;" vertex="1" parent="iUI2MCQNHXwOpUdywdGW-28">
          <mxGeometry x="88" y="6" width="28" height="10" as="geometry" />
        </mxCell>
        <mxCell id="iUI2MCQNHXwOpUdywdGW-33" value="" style="rounded=1;whiteSpace=wrap;html=1;strokeWidth=3;fillColor=#dae8fc;strokeColor=#6c8ebf;" vertex="1" parent="iUI2MCQNHXwOpUdywdGW-28">
          <mxGeometry x="122" y="6" width="28" height="10" as="geometry" />
        </mxCell>
        <mxCell id="iUI2MCQNHXwOpUdywdGW-34" value="" style="rounded=1;whiteSpace=wrap;html=1;strokeWidth=3;fillColor=#dae8fc;strokeColor=#6c8ebf;" vertex="1" parent="iUI2MCQNHXwOpUdywdGW-28">
          <mxGeometry x="54" y="20" width="28" height="10" as="geometry" />
        </mxCell>
        <mxCell id="iUI2MCQNHXwOpUdywdGW-35" value="" style="rounded=1;whiteSpace=wrap;html=1;strokeWidth=3;fillColor=#dae8fc;strokeColor=#6c8ebf;" vertex="1" parent="iUI2MCQNHXwOpUdywdGW-28">
          <mxGeometry x="88" y="20" width="28" height="10" as="geometry" />
        </mxCell>
        <mxCell id="iUI2MCQNHXwOpUdywdGW-36" value="" style="rounded=1;whiteSpace=wrap;html=1;strokeWidth=3;fillColor=#dae8fc;strokeColor=#6c8ebf;" vertex="1" parent="iUI2MCQNHXwOpUdywdGW-28">
          <mxGeometry x="122" y="20" width="28" height="10" as="geometry" />
        </mxCell>
        <mxCell id="iUI2MCQNHXwOpUdywdGW-37" value="&lt;font color=&quot;#666666&quot;&gt;Switch&lt;/font&gt;&lt;div&gt;&lt;font color=&quot;#666666&quot;&gt;&lt;br&gt;&lt;/font&gt;&lt;/div&gt;&lt;div&gt;&lt;font color=&quot;#666666&quot;&gt;&lt;br&gt;&lt;/font&gt;&lt;/div&gt;&lt;div&gt;&lt;font color=&quot;#666666&quot;&gt;&lt;br&gt;&lt;/font&gt;&lt;/div&gt;&lt;div&gt;&lt;font color=&quot;#666666&quot;&gt;&lt;br&gt;&lt;/font&gt;&lt;/div&gt;&lt;div&gt;&lt;font color=&quot;#666666&quot;&gt;&lt;br&gt;&lt;/font&gt;&lt;/div&gt;&lt;div&gt;&lt;font color=&quot;#666666&quot;&gt;&lt;br&gt;&lt;/font&gt;&lt;/div&gt;&lt;div&gt;&lt;font color=&quot;#666666&quot;&gt;&lt;br&gt;&lt;/font&gt;&lt;/div&gt;&lt;div&gt;&lt;font color=&quot;#666666&quot;&gt;&lt;br&gt;&lt;/font&gt;&lt;/div&gt;&lt;div&gt;&lt;br&gt;&lt;/div&gt;" style="rounded=1;whiteSpace=wrap;html=1;fillColor=#dae8fc;strokeColor=#6c8ebf;container=0;" vertex="1" parent="1">
          <mxGeometry x="413" y="182" width="160" height="160" as="geometry" />
        </mxCell>
        <mxCell id="iUI2MCQNHXwOpUdywdGW-38" value="" style="html=1;shadow=0;dashed=0;align=center;verticalAlign=middle;shape=mxgraph.arrows2.arrow;dy=0.67;dx=21.67;direction=north;notch=0;strokeColor=#666666;rotation=90;fillColor=#f5f5f5;sketch=1;curveFitting=1;jiggle=2;fontColor=#333333;container=0;" vertex="1" parent="1">
          <mxGeometry x="483" y="180" width="50" height="78" as="geometry" />
        </mxCell>
        <mxCell id="iUI2MCQNHXwOpUdywdGW-39" value="" style="html=1;shadow=0;dashed=0;align=center;verticalAlign=middle;shape=mxgraph.arrows2.arrow;dy=0.67;dx=21.67;direction=north;notch=0;strokeColor=#666666;rotation=90;fillColor=#f5f5f5;fontColor=#333333;sketch=1;curveFitting=1;jiggle=2;container=0;" vertex="1" parent="1">
          <mxGeometry x="499" y="246" width="50" height="70" as="geometry" />
        </mxCell>
        <mxCell id="iUI2MCQNHXwOpUdywdGW-40" value="" style="html=1;shadow=0;dashed=0;align=center;verticalAlign=middle;shape=mxgraph.arrows2.arrow;dy=0.67;dx=21.67;direction=north;notch=0;strokeColor=#666666;rotation=-90;fillColor=#f5f5f5;fontColor=#333333;sketch=1;curveFitting=1;jiggle=2;container=0;" vertex="1" parent="1">
          <mxGeometry x="437" y="214" width="50" height="70" as="geometry" />
        </mxCell>
        <mxCell id="iUI2MCQNHXwOpUdywdGW-41" value="" style="html=1;shadow=0;dashed=0;align=center;verticalAlign=middle;shape=mxgraph.arrows2.arrow;dy=0.67;dx=21.67;direction=north;notch=0;strokeColor=#666666;rotation=-90;fillColor=#f5f5f5;fontColor=#333333;sketch=1;curveFitting=1;jiggle=2;container=0;" vertex="1" parent="1">
          <mxGeometry x="454" y="274" width="50" height="70" as="geometry" />
        </mxCell>
        <mxCell id="iUI2MCQNHXwOpUdywdGW-42" value="" style="group;fillColor=#dae8fc;strokeColor=#6c8ebf;" vertex="1" connectable="0" parent="1">
          <mxGeometry x="170" y="200" width="160" height="36" as="geometry" />
        </mxCell>
        <mxCell id="iUI2MCQNHXwOpUdywdGW-43" value="" style="rounded=1;whiteSpace=wrap;html=1;strokeWidth=4;fillColor=#dae8fc;strokeColor=#6c8ebf;" vertex="1" parent="iUI2MCQNHXwOpUdywdGW-42">
          <mxGeometry width="160" height="36" as="geometry" />
        </mxCell>
        <mxCell id="iUI2MCQNHXwOpUdywdGW-44" value="" style="ellipse;whiteSpace=wrap;html=1;aspect=fixed;strokeWidth=3;fillColor=#dae8fc;strokeColor=#6c8ebf;" vertex="1" parent="iUI2MCQNHXwOpUdywdGW-42">
          <mxGeometry x="20" y="12" width="12" height="12" as="geometry" />
        </mxCell>
        <mxCell id="iUI2MCQNHXwOpUdywdGW-45" value="" style="rounded=1;whiteSpace=wrap;html=1;strokeWidth=3;fillColor=#dae8fc;strokeColor=#6c8ebf;" vertex="1" parent="iUI2MCQNHXwOpUdywdGW-42">
          <mxGeometry x="54" y="6" width="28" height="10" as="geometry" />
        </mxCell>
        <mxCell id="iUI2MCQNHXwOpUdywdGW-46" value="" style="rounded=1;whiteSpace=wrap;html=1;strokeWidth=3;fillColor=#dae8fc;strokeColor=#6c8ebf;" vertex="1" parent="iUI2MCQNHXwOpUdywdGW-42">
          <mxGeometry x="88" y="6" width="28" height="10" as="geometry" />
        </mxCell>
        <mxCell id="iUI2MCQNHXwOpUdywdGW-47" value="" style="rounded=1;whiteSpace=wrap;html=1;strokeWidth=3;fillColor=#dae8fc;strokeColor=#6c8ebf;" vertex="1" parent="iUI2MCQNHXwOpUdywdGW-42">
          <mxGeometry x="122" y="6" width="28" height="10" as="geometry" />
        </mxCell>
        <mxCell id="iUI2MCQNHXwOpUdywdGW-48" value="" style="rounded=1;whiteSpace=wrap;html=1;strokeWidth=3;fillColor=#dae8fc;strokeColor=#6c8ebf;" vertex="1" parent="iUI2MCQNHXwOpUdywdGW-42">
          <mxGeometry x="54" y="20" width="28" height="10" as="geometry" />
        </mxCell>
        <mxCell id="iUI2MCQNHXwOpUdywdGW-49" value="" style="rounded=1;whiteSpace=wrap;html=1;strokeWidth=3;fillColor=#dae8fc;strokeColor=#6c8ebf;" vertex="1" parent="iUI2MCQNHXwOpUdywdGW-42">
          <mxGeometry x="88" y="20" width="28" height="10" as="geometry" />
        </mxCell>
        <mxCell id="iUI2MCQNHXwOpUdywdGW-50" value="" style="rounded=1;whiteSpace=wrap;html=1;strokeWidth=3;fillColor=#dae8fc;strokeColor=#6c8ebf;" vertex="1" parent="iUI2MCQNHXwOpUdywdGW-42">
          <mxGeometry x="122" y="20" width="28" height="10" as="geometry" />
        </mxCell>
        <mxCell id="iUI2MCQNHXwOpUdywdGW-51" style="edgeStyle=orthogonalEdgeStyle;rounded=0;orthogonalLoop=1;jettySize=auto;html=1;entryX=0.468;entryY=1.003;entryDx=0;entryDy=0;entryPerimeter=0;elbow=vertical;curved=1;strokeColor=#050505;endArrow=none;endFill=0;" edge="1" parent="1" source="iUI2MCQNHXwOpUdywdGW-2" target="iUI2MCQNHXwOpUdywdGW-37">
          <mxGeometry relative="1" as="geometry" />
        </mxCell>
        <mxCell id="iUI2MCQNHXwOpUdywdGW-52" style="edgeStyle=orthogonalEdgeStyle;rounded=0;orthogonalLoop=1;jettySize=auto;html=1;entryX=0.25;entryY=1;entryDx=0;entryDy=0;curved=1;strokeColor=#050505;endArrow=none;endFill=0;" edge="1" parent="1" source="iUI2MCQNHXwOpUdywdGW-20" target="iUI2MCQNHXwOpUdywdGW-37">
          <mxGeometry relative="1" as="geometry" />
        </mxCell>
        <mxCell id="iUI2MCQNHXwOpUdywdGW-53" style="edgeStyle=orthogonalEdgeStyle;rounded=0;orthogonalLoop=1;jettySize=auto;html=1;curved=1;strokeColor=#050505;endArrow=none;endFill=0;" edge="1" parent="1" source="iUI2MCQNHXwOpUdywdGW-43" target="iUI2MCQNHXwOpUdywdGW-37">
          <mxGeometry relative="1" as="geometry" />
        </mxCell>
      </root>
    </mxGraphModel>
  </diagram>
</mxfile>
